PathFileType	4	(X/Y/Z)	54_2_41_p0_0-364.trc
DataRate	CameraRate	NumFrames	NumMarkers	Units	OrigDataRate	OrigDataStartFrame	OrigNumFrames
42.0	42.0	5	27	m	42.0	136	365
Frame#	Time	RHip			RKnee			RAnkle			RBigToe			RSmallToe			RHeel			LHip			LKnee			LAnkle			LBigToe			LSmallToe			LHeel			Neck			Head			Nose			RShoulder			RElbow			RWrist			RThumb			RIndex			RPinky			LShoulder			LElbow			LWrist			LThumb			LIndex			LPinky			
		X1	Y1	Z1	X2	Y2	Z2	X3	Y3	Z3	X4	Y4	Z4	X5	Y5	Z5	X6	Y6	Z6	X7	Y7	Z7	X8	Y8	Z8	X9	Y9	Z9	X10	Y10	Z10	X11	Y11	Z11	X12	Y12	Z12	X13	Y13	Z13	X14	Y14	Z14	X15	Y15	Z15	X16	Y16	Z16	X17	Y17	Z17	X18	Y18	Z18	X19	Y19	Z19	X20	Y20	Z20	X21	Y21	Z21	X22	Y22	Z22	X23	Y23	Z23	X24	Y24	Z24	X25	Y25	Z25	X26	Y26	Z26	X27	Y27	Z27	
136	3.238095238095238	0.2965273255937544	0.5470755995154748	1.1095653482336696	0.29331795016371726	0.5573553510246375	1.5514042646429476	0.266245083313502	0.5930971686967422	1.964563484162909	0.22781283275620748	0.37388782351530286	1.9468148784750572	0.2901005738241842	0.3911853709910486	1.957686700220841	0.24778033840156116	0.6497243229582484	2.016983876850581	0.07677926895555993	0.5475475801270386	1.1131640386067891	0.07794615760134689	0.5635341601907478	1.5271080453618324	0.0735704670386988	0.5665032610294803	1.938119093509135	0.07467635784133703	0.3613027508584718	1.9249669230738906	0.01613343836297676	0.42229799690825803	1.9518344150524594	0.09202073281166957	0.6155925836368952	2.018381362733001	0.1720228736473527	0.5709191098318825	0.5845914601478437	0.058636516114469114	0.5516962991542737	0.36638162806715824	0.12533762859057576	0.4660678472539247	0.4902083851844068	0.3547599161343839	0.5396220659574057	0.6055593830223817	0.30784164536044056	0.45370225592905067	0.7732789855347341	0.21613290143823455	0.4856193900752281	0.6580560435788008	0.17999251050584783	0.614613962725672	0.6006615258152417	0.15845803829720054	0.5726491048621231	0.5647695586041962	0.16223997962018294	0.465121102921296	0.6054363043006192	0.04905646899685154	0.5669388706146873	0.6439479212315905	0.06507058496963784	0.39104449839939265	0.7853763921357945	0.1492704430665957	0.4351296388046329	0.6700537007889471	0.17252252437556886	0.5863930424194146	0.6374669379149084	0.17930591286226008	0.5588355834941394	0.6005602166759855	0.19619399597921197	0.4455636575422772	0.6191781062346242
137	3.261904761904762	0.2964932903333622	0.5469782638018607	1.1095856493635403	0.29328678373967904	0.5574957937894218	1.5513799622482107	0.26618822476671145	0.5929657761334715	1.964474330224522	0.2278467506337324	0.37394101306490973	1.9467652798178563	0.2901775719789599	0.39133183475379346	1.957588850023555	0.24744382914077886	0.6487968875639536	2.0162494560051933	0.07676897796034148	0.5475028211272445	1.1131080778223776	0.07792678745696381	0.5635531220189418	1.5271763583901343	0.07230980558437011	0.5667858120224214	1.9432684924888186	0.07465198785784323	0.3614417773572716	1.925066194092702	0.020868355577376624	0.4086173661586877	1.9423823411921435	0.09203408690725276	0.6154021186808138	2.018337895095334	0.172021574096625	0.5708428018702015	0.5846272891123686	0.058991689446165126	0.5521339841755059	0.3661899228201626	0.125335683350657	0.4659567219198335	0.49017765557761067	0.3547261501102338	0.5396724632813185	0.6055746997673386	0.3038423086548738	0.4458731896489891	0.7766038896884127	0.21561933857879945	0.4852867431321128	0.6580125320150417	0.17990685188689834	0.6153246393998769	0.6013145749230077	0.15840357457221335	0.5743831519717619	0.5670707992019128	0.15312433273978834	0.43192794992125466	0.5856947744005773	0.04895653971421962	0.5670090122159884	0.6440408360876217	0.06512046058858811	0.39107986612312534	0.7854589008202713	0.14925021213716416	0.43547912540236866	0.6705217890129476	0.17271775451402716	0.5873636680910562	0.63817133442074	0.17925934409412525	0.5594059566354369	0.6021454665898585	0.19123458055632006	0.4675725832371735	0.6275591911055665
138	3.2857142857142856	0.29655463918055347	0.5470823662049141	1.1096064295595687	0.29328135502847835	0.5573174153298636	1.5514580792727781	0.2706012065850579	0.6055365901394772	1.972522157967039	0.22789478889591402	0.3739456717947008	1.9467519021509094	0.2902134112038145	0.3913110220297697	1.9575724157965655	0.24802957298843142	0.6501185529063838	2.0171994671809252	0.07678563465898987	0.5474731294338387	1.1132906675176295	0.07795829786737407	0.5635315626890571	1.527176350387666	0.07230127347098925	0.5668298758262484	1.9433185415591823	0.0758064459943036	0.3607708724368072	1.9205493658387052	0.020912047124262416	0.4085645577366115	1.9422606793161037	0.09127161450710991	0.6140520358634992	2.0141006084419515	0.1720075325804134	0.5707773179645211	0.5846421531428336	0.05925472507018372	0.552325358745521	0.3660629377080055	0.121621292693405	0.4639500566127058	0.4898690956166879	0.35470637246545095	0.5396578740592646	0.6056157277371519	0.30359262155964656	0.44588163826988564	0.7689257695689088	0.21531591793526392	0.4850100925737985	0.6546959210854406	0.1799107186176102	0.6139301692375856	0.5976902719455582	0.15273659626600644	0.5670954128131084	0.5632345970395511	0.1544840245644982	0.4533770820820322	0.6022306604027449	0.04892898400664419	0.5665990861830782	0.6438650724573585	0.06513235118770068	0.3910237275046598	0.7853536021657701	0.14920364741478775	0.43524147250582795	0.6701484517001884	0.1729626404800335	0.5874704340138155	0.6383052779159626	0.17932337692665382	0.5592173767138278	0.6017352831551298	0.1883032060272966	0.457335313870692	0.6301387210471172
139	3.3095238095238093	0.2926655955545206	0.5361927534687345	1.1056623185860068	0.293265412539202	0.5575038225438907	1.5514368119018347	0.2708469478410415	0.5956629891198079	1.9659661237424548	0.22779264354377718	0.37382693392882127	1.9465240722678592	0.2901466395699636	0.39135100918634075	1.9574571091443222	0.24741811395966032	0.6485590880998372	2.0158982885548205	0.07678901243266002	0.5475500806439672	1.1132828414307514	0.07338769668167938	0.5779539002825901	1.5344366747401457	0.07229513271964265	0.5668594773372949	1.9433065552523807	0.0746213875126173	0.3611599057054493	1.9248593102403115	0.02087480841074549	0.408502157379442	1.942313848819862	0.09124883010656935	0.6139566790156648	2.014007204919953	0.17184925394669986	0.5699490148666795	0.5808457412805701	0.059233828367771364	0.5523258067818426	0.3660277739003369	0.11841620441841445	0.4536413993521639	0.4916924181857563	0.3547030756400066	0.539667344737739	0.6056485482675774	0.3041734801079137	0.447119720064676	0.7767138692735392	0.2164846496975716	0.4853147227612558	0.6614118560632755	0.18693588537008776	0.5870855054724952	0.591167874320597	0.16288510736237177	0.5612903231674942	0.5639687683442008	0.15734645889327875	0.4633373723105738	0.6054583620368577	0.048741788749603505	0.5677320998451456	0.6400708385995082	0.06506624752984096	0.3909938817493703	0.7853870228845878	0.14900649889914247	0.4351452686858799	0.6706088153264084	0.1773093994236629	0.5864375149767209	0.6382127939970812	0.17960983995120253	0.5342447775425297	0.5977315117696974	0.1924226353132448	0.45759587196284807	0.6254800471034505
140	3.3333333333333335	0.2965431074453634	0.5470242341937254	1.1095583075075337	0.2924455870526917	0.5566983504429176	1.5464597876840185	0.2753229825403579	0.6082722830586266	1.974127181008234	0.22786426620078462	0.37406869666967385	1.9468608951930413	0.289098492019568	0.39178340321806204	1.9625479123841074	0.24824161612364365	0.6509287235785793	2.017824644885952	0.07676644834442246	0.5475474226103882	1.1131675281912472	0.07336810656854145	0.5778597549077054	1.5343109463994167	0.07351694392969385	0.5666017636081693	1.9380915413272748	0.07465063522969441	0.3616386809176082	1.9251529338979585	0.016153807556645184	0.4223773363928192	1.9517144507096584	0.09124198564073711	0.6142846635048488	2.013934924170166	0.1718946188836839	0.5698788431892757	0.5808632833922864	0.0592987150755708	0.5520369405925296	0.36595185581925	0.11453372162590714	0.4653892279428793	0.49359883393628384	0.3507606629384035	0.5373687192019643	0.6052252962199149	0.3050188099410968	0.44826392076050087	0.7735590381303525	0.21535826394807775	0.4849800903392136	0.662480853224908	0.18992062113480523	0.5718970013064061	0.58699293986583	0.1569821556811882	0.5562475408516002	0.5678387558329386	0.16013664561916416	0.4496898521815193	0.6060271050868395	0.04894086109494943	0.5682297022074145	0.640189644778997	0.06511485111521544	0.3909039735602616	0.7853008336980807	0.14907265967931155	0.43516602709080104	0.6706500283978865	0.18167201264181546	0.5735180269389656	0.6330241030637701	0.18326853748974722	0.5457680972510927	0.5991703181899598	0.19247992011795872	0.45769468180451195	0.6246436935599404
